<?xml version="1.0" encoding="UTF-8"?>
<svg version="1.1" xmlns="http://www.w3.org/2000/svg" width="2048" height="2048">
<path d="M0 0 C675.84 0 1351.68 0 2048 0 C2048 675.84 2048 1351.68 2048 2048 C1372.16 2048 696.32 2048 0 2048 C0 1372.16 0 696.32 0 0 Z " fill="#F7F7F2" transform="translate(0,0)"/>
<path d="M0 0 C1.7714765 1.53810834 3.52103123 3.10175941 5.25 4.6875 C6.22453125 5.56921875 7.1990625 6.4509375 8.203125 7.359375 C31.00935325 28.67083359 42.60514768 58.06784347 43.70581055 88.94799805 C44.29394089 127.07249144 27.77632548 162.27599382 1.61328125 189.2890625 C-23.71418371 215.00487722 -56.2573555 230.67928942 -91.75 236.6875 C-92.41515625 236.80319336 -93.0803125 236.91888672 -93.765625 237.03808594 C-111.49607796 239.93302908 -129.84839275 238.87107726 -147.75 238.6875 C-147.72905273 239.65349121 -147.70810547 240.61948242 -147.68652344 241.61474609 C-147.12488936 270.01728835 -147.11042021 293.82210645 -167.76953125 315.83984375 C-179.80237659 327.4708501 -196.69649463 332.75810576 -213.1875 333.0625 C-230.9860265 332.43336166 -247.38242696 325.11515297 -259.6875 312.12890625 C-272.71188423 296.71178477 -277.11436549 279.39650242 -275.75 259.6875 C-273.56045709 243.62471885 -264.41538929 229.91872675 -252.22265625 219.56640625 C-239.45157466 209.86199828 -225.89790612 205.48353921 -209.97265625 205.58984375 C-209.16130722 205.5912587 -208.34995819 205.59267365 -207.51402283 205.59413147 C-204.94680953 205.59968643 -202.37968652 205.61223033 -199.8125 205.625 C-198.06185023 205.63002083 -196.31119907 205.63458271 -194.56054688 205.63867188 C-190.2903303 205.64964107 -186.02018041 205.66687418 -181.75 205.6875 C-181.75368717 205.05656559 -181.75737434 204.42563118 -181.76117325 203.77557755 C-181.85001841 188.32997376 -181.91594742 172.88446047 -181.95724869 157.43866348 C-181.97775927 149.96878048 -182.00565567 142.49906941 -182.05175781 135.02929688 C-182.09198235 128.50867066 -182.11751606 121.98816911 -182.12635398 115.46742225 C-182.13150944 112.02371999 -182.14337654 108.58037395 -182.17292023 105.13678741 C-182.45570313 68.01894677 -174.28967146 36.02870516 -147.75 8.6875 C-135.8864427 -3.21696612 -122.29936921 -11.23240711 -106.75 -17.3125 C-105.55697266 -17.80169922 -105.55697266 -17.80169922 -104.33984375 -18.30078125 C-70.13062721 -31.15395509 -28.18855019 -22.26895465 0 0 Z " fill="#C98160" transform="translate(546.75,869.3125)"/>
<path d="M0 0 C1.51170776 0.00737183 1.51170776 0.00737183 3.05395508 0.01489258 C24.64280691 0.35257014 44.24987704 8.87322722 59.640625 24.015625 C70.8737381 35.60886257 77.92508494 49.59702134 82.5625 64.9375 C82.75755127 65.58114502 82.95260254 66.22479004 83.15356445 66.88793945 C86.44260893 78.5570108 87.12893593 90.31540404 87.0625 102.375 C87.06001251 103.09827484 87.05752502 103.82154968 87.05496216 104.56674194 C86.90151039 133.49897605 80.651791 162.20813925 60.75 184.3125 C60.15960937 184.99570313 59.56921875 185.67890625 58.9609375 186.3828125 C46.92381379 199.44437228 28.39831938 208.24394765 10.74121094 209.53198242 C-11.43373731 210.34839569 -28.2845043 207.46280814 -45.65625 192.76171875 C-49.64719134 188.9931642 -53.22379362 184.8995005 -56.25 180.3125 C-56.25 179.6525 -56.25 178.9925 -56.25 178.3125 C-56.91 178.3125 -57.57 178.3125 -58.25 178.3125 C-58.25 212.6325 -58.25 246.9525 -58.25 282.3125 C-77.06 282.3125 -95.87 282.3125 -115.25 282.3125 C-115.25 190.2425 -115.25 98.1725 -115.25 3.3125 C-96.77 3.3125 -78.29 3.3125 -59.25 3.3125 C-58.92 13.5425 -58.59 23.7725 -58.25 34.3125 C-56.27 31.0125 -54.29 27.7125 -52.25 24.3125 C-43.10393355 11.87168913 -29.09553977 3.47683803 -13.94921875 0.68530273 C-9.29854834 0.04297516 -4.68904258 -0.02720457 0 0 Z " fill="#242321" transform="translate(809.25,918.6875)"/>
<path d="M0 0 C16.78229446 15.62089 24.08088885 38.02944423 28.4453125 59.8515625 C28.4453125 71.0715625 28.4453125 82.2915625 28.4453125 93.8515625 C-18.0846875 93.8515625 -64.6146875 93.8515625 -112.5546875 93.8515625 C-110.11771439 109.69188769 -107.47707473 122.85804167 -94.82421875 133.28515625 C-82.37816424 141.87529025 -68.08969708 143.55742831 -53.3671875 141.2265625 C-42.89955114 138.70109283 -34.79725914 133.6287121 -28.5546875 124.8515625 C-27.35513133 122.86314566 -26.43823411 121.00520737 -25.5546875 118.8515625 C-23.5547672 118.82412457 -21.55473273 118.80497195 -19.5546875 118.7890625 C-17.8840625 118.77166016 -17.8840625 118.77166016 -16.1796875 118.75390625 C-12.96372772 118.8405431 -9.87722591 119.18675147 -6.69116211 119.59886169 C-3.39237399 119.98904017 -0.08856515 120.186207 3.2265625 120.38671875 C3.92551636 120.42969589 4.62447021 120.47267303 5.34460449 120.51695251 C7.54470387 120.65169304 9.74499474 120.78294172 11.9453125 120.9140625 C13.45053499 121.00562696 14.95574348 121.09742182 16.4609375 121.18945312 C20.1222381 121.41281552 23.78371887 121.63305009 27.4453125 121.8515625 C25.01957591 137.37519677 17.30513979 149.80481908 6.4453125 160.8515625 C5.83042969 161.47933594 5.21554687 162.10710937 4.58203125 162.75390625 C-11.55318487 177.99080199 -35.63937338 184.91936965 -57.3671875 185.0546875 C-58.09856934 185.06038757 -58.82995117 185.06608765 -59.58349609 185.07196045 C-61.12645041 185.0813557 -62.66942429 185.08792248 -64.21240234 185.09179688 C-66.52088599 185.10142157 -68.82844635 185.13246262 -71.13671875 185.1640625 C-96.68187926 185.34811901 -120.31673246 176.8670823 -139.5546875 159.8515625 C-140.16570313 159.32304688 -140.77671875 158.79453125 -141.40625 158.25 C-158.421459 142.47791129 -168.41884236 116.21372841 -169.75952148 93.35986328 C-169.85877394 89.50038217 -169.88350237 85.64977616 -169.8671875 81.7890625 C-169.86536469 81.10658447 -169.86354187 80.42410645 -169.86166382 79.72094727 C-169.72564064 49.43252775 -161.06455401 22.06980417 -139.10986328 0.30664062 C-101.36975335 -35.00435705 -38.26743373 -32.18209259 0 0 Z " fill="#242422" transform="translate(1084.5546875,943.1484375)"/>
<path d="M0 0 C1.62215675 0.00333092 1.62215675 0.00333092 3.27708435 0.00672913 C4.49827469 0.00680466 5.71946503 0.00688019 6.97766113 0.00695801 C8.32022644 0.0120654 9.66279134 0.01728141 11.00535583 0.02259827 C12.37156116 0.02446252 13.73776716 0.02588639 15.10397339 0.02688599 C18.70596654 0.03071058 22.30791959 0.04054035 25.90989685 0.05158997 C29.58298703 0.06180536 33.25608368 0.06638388 36.92918396 0.07142639 C44.14079081 0.08216268 51.35236459 0.09923838 58.56394958 0.12025452 C56.38480909 6.793415 54.04331166 13.39808986 51.63426208 19.99134827 C51.25214066 21.04044876 50.87001923 22.08954926 50.47631836 23.17044067 C49.64913757 25.44117062 48.82142663 27.7117075 47.99324036 29.98207092 C45.96617236 35.5392319 43.9423188 41.09756313 41.91865349 46.6559639 C41.44834487 47.94773497 40.97799359 49.23949051 40.50760078 50.53123093 C35.83319155 63.36805812 31.18358705 76.21380396 26.53831482 89.061203 C20.59981043 105.48517848 14.65017409 121.90482581 8.65379333 138.30775452 C8.40684219 138.98335733 8.15989105 139.65896015 7.90545654 140.35503578 C5.6773557 146.45033811 3.44865667 152.54542121 1.21757507 158.63963318 C-3.55369972 171.67330488 -8.31470648 184.70961558 -12.93995667 197.79603577 C-13.28240417 198.76342682 -13.62485168 199.73081787 -13.97767639 200.7275238 C-15.51899027 205.08534841 -17.05256752 209.44557753 -18.57032776 213.81166077 C-21.30885835 221.62844739 -24.26243832 229.29934159 -27.60011292 236.88197327 C-28.08495399 237.98953728 -28.08495399 237.98953728 -28.57958984 239.11947632 C-31.41585946 245.4215254 -34.99536217 250.81844422 -39.43605042 256.12025452 C-40.13472229 256.99166077 -40.83339417 257.86306702 -41.55323792 258.76087952 C-52.41784582 271.67468393 -68.53466992 279.03697931 -85.22511292 280.87025452 C-102.29205585 282.03722497 -121.77914419 283.29744714 -137.43605042 275.12025452 C-135.81068887 267.47850232 -133.88284712 259.92232617 -131.9221344 252.36146545 C-131.36946202 250.22948317 -130.81958901 248.09679245 -130.27003479 245.96400452 C-127.57469847 235.53619869 -127.57469847 235.53619869 -126.43605042 232.12025452 C-125.4808551 232.33681702 -124.52565979 232.55337952 -123.54151917 232.77650452 C-112.27634123 235.24396169 -101.835146 237.49864715 -91.43605042 231.12025452 C-86.33974129 227.18219746 -84.00308642 221.88482659 -81.43605042 216.12025452 C-81.0583551 215.35712952 -80.68065979 214.59400452 -80.29151917 213.80775452 C-78.08921425 206.88909797 -79.75883759 201.12168012 -82.33058167 194.64369202 C-82.63743393 193.83832001 -82.94428619 193.032948 -83.26043701 192.20317078 C-84.24408687 189.62890163 -85.2455052 187.06202025 -86.24855042 184.49525452 C-87.2006022 182.02584723 -88.14877626 179.55497596 -89.09658813 177.0839386 C-89.76418773 175.3435231 -90.43304258 173.60358867 -91.10302734 171.86408997 C-95.79128814 159.65783183 -100.24310052 147.36328992 -104.72174454 135.07900238 C-105.89428431 131.86369947 -107.06846891 128.64899736 -108.2424469 125.43421936 C-110.11947751 120.29337928 -111.99544605 115.1521527 -113.87062073 110.01063538 C-124.99062316 79.52037815 -124.99062316 79.52037815 -136.18605042 49.05775452 C-136.45875763 48.31844696 -136.73146484 47.5791394 -137.01243591 46.81742859 C-138.31179453 43.29518529 -139.61161584 39.77311294 -140.91163635 36.25111389 C-143.30035167 29.77888994 -145.68674247 23.3058181 -148.06703186 16.83049011 C-148.55722937 15.49780836 -149.04801895 14.16534422 -149.53944397 12.83311462 C-150.20177573 11.03744743 -150.86194772 9.24098404 -151.52198792 7.44447327 C-151.89372131 6.4347345 -152.26545471 5.42499573 -152.64845276 4.38465881 C-153.43605042 2.12025452 -153.43605042 2.12025452 -153.43605042 1.12025452 C-132.97605042 1.12025452 -112.51605042 1.12025452 -91.43605042 1.12025452 C-86.64653001 16.68619583 -81.87017532 32.2377657 -77.34938049 47.88026428 C-74.30240135 58.37964448 -71.03759559 68.80232678 -67.70225525 79.21330261 C-66.16548473 84.01042836 -64.63501616 88.80956491 -63.10401917 93.60853577 C-62.64244164 95.05464485 -62.64244164 95.05464485 -62.17153931 96.52996826 C-58.65415173 107.55734861 -55.18684835 118.60035931 -51.72462463 129.64515686 C-51.50799667 130.33603897 -51.29136871 131.02692108 -51.06817627 131.73873901 C-50.49077687 133.58071112 -49.91395203 135.42286331 -49.33717346 137.26502991 C-48.71956729 139.22192619 -48.08496339 141.1735156 -47.43605042 143.12025452 C-44.76096474 138.24126581 -43.25646874 133.44231797 -41.81495667 128.11244202 C-38.27591946 115.39510139 -34.4275671 102.77532039 -30.56764221 90.15248108 C-29.56782603 86.8826349 -28.5714996 83.61173693 -27.57604122 80.34056187 C-23.98357141 68.54001749 -20.38395215 56.75158686 -16.41822815 45.07044983 C-14.9727218 40.72854112 -13.71946369 36.34212806 -12.49855042 31.93275452 C-11.99697051 30.1525177 -11.4943356 28.37257784 -10.99073792 26.59291077 C-10.7377594 25.69846252 -10.48478088 24.80401428 -10.22413635 23.88246155 C-8.88884051 19.20230755 -7.51232886 14.53477988 -6.12355042 9.87025452 C-5.86904114 9.00634094 -5.61453186 8.14242737 -5.35231018 7.25233459 C-3.23117805 0.15950563 -3.23117805 0.15950563 0 0 Z " fill="#242421" transform="translate(1718.436050415039,920.8797454833984)"/>
<path d="M0 0 C1.14227051 0.00942627 2.28454102 0.01885254 3.46142578 0.02856445 C11.38773973 0.17069224 18.54230837 0.70377644 26.0625 3.375 C27.07957031 3.72691406 28.09664062 4.07882812 29.14453125 4.44140625 C36.20566398 7.13263042 42.12786542 10.72570083 48.0625 15.375 C48.77277344 15.92027344 49.48304688 16.46554687 50.21484375 17.02734375 C65.11162119 29.17922554 71.41003477 47.91412882 73.66570663 66.39904976 C74.27091804 72.4633912 74.32550951 78.47238857 74.28955078 84.56225586 C74.2889845 85.90435274 74.28930744 87.24645023 74.29043579 88.58854675 C74.29100186 92.17850954 74.27937082 95.76833446 74.26528788 99.35826564 C74.25265382 103.12983265 74.25160015 106.90140398 74.24923706 110.67298889 C74.24305908 117.79112875 74.22669898 124.90920604 74.20653808 132.02731854 C74.18406336 140.14116701 74.17315676 148.25501871 74.16314721 156.36889064 C74.14232879 173.037636 74.10569953 189.70629533 74.0625 206.375 C54.9225 206.375 35.7825 206.375 16.0625 206.375 C16.02382812 192.61554688 16.02382812 192.61554688 15.984375 178.578125 C15.95919751 172.75388513 15.9330194 166.92967797 15.90234375 161.10546875 C15.85387918 151.86865494 15.80940602 142.63194992 15.79150391 133.39501953 C15.77844418 126.66633477 15.7513703 119.93787254 15.70788693 113.20931315 C15.68536844 109.65082171 15.66958348 106.09260374 15.67061615 102.53403473 C15.67150883 98.54874614 15.64109562 94.56425633 15.60839844 90.57910156 C15.6134288 89.4159996 15.61845917 88.25289764 15.62364197 87.05455017 C15.46812699 74.73746002 12.21154938 64.40953372 3.35546875 55.6953125 C-3.95338314 49.50971574 -14.0283092 46.58209222 -23.54296875 47.05859375 C-33.90833468 48.42824243 -44.11150605 53.00172876 -50.62890625 61.40234375 C-57.87559519 72.32645692 -59.23134559 82.90562335 -59.25634766 95.80126953 C-59.27141609 97.6029937 -59.27141609 97.6029937 -59.28678894 99.44111633 C-59.31220702 102.70282514 -59.32916718 105.96444038 -59.34221697 109.22621775 C-59.35795227 112.64686315 -59.38470873 116.06742287 -59.4102478 119.48800659 C-59.45685293 125.95105508 -59.49368481 132.41412003 -59.52692068 138.8772496 C-59.56904109 146.96510082 -59.62435823 155.0528552 -59.6796875 163.140625 C-59.77821966 177.55202989 -59.85694122 191.96345857 -59.9375 206.375 C-79.0775 206.375 -98.2175 206.375 -117.9375 206.375 C-117.9375 139.055 -117.9375 71.735 -117.9375 2.375 C-99.7875 2.375 -81.6375 2.375 -62.9375 2.375 C-62.9375 14.255 -62.9375 26.135 -62.9375 38.375 C-62.2775 38.375 -61.6175 38.375 -60.9375 38.375 C-60.73125 37.570625 -60.525 36.76625 -60.3125 35.9375 C-58.49867552 31.23804566 -55.86693839 27.44817379 -52.9375 23.375 C-52.23625 22.385 -51.535 21.395 -50.8125 20.375 C-37.91539753 5.53506479 -19.02243051 -0.24366063 0 0 Z " fill="#252523" transform="translate(1256.9375,918.625)"/>
<path d="M0 0 C0.85722656 0.25523437 1.71445313 0.51046875 2.59765625 0.7734375 C19.7495135 6.69911877 32.14031802 20.13773273 40 36 C48.31275425 54.04475923 47.41508906 73.51086116 47.30418181 92.89237595 C47.28522083 96.77336784 47.28364948 100.65436932 47.28010559 104.53540039 C47.27084143 111.85895519 47.24630532 119.18237303 47.21605712 126.50586796 C47.18233604 134.85430741 47.16598294 143.20275396 47.15097082 151.55124474 C47.11974957 168.70092226 47.06480949 185.85041151 47 203 C28.19 203 9.38 203 -10 203 C-10.03738281 194.04359375 -10.07476563 185.0871875 -10.11328125 175.859375 C-10.14742635 169.4480089 -10.1834211 163.03667398 -10.22207737 156.62533569 C-10.27184966 148.32966749 -10.31732375 140.03405046 -10.34643555 131.73828125 C-10.3695068 125.16783751 -10.40300544 118.59754102 -10.44870156 112.02721429 C-10.47251166 108.55260345 -10.49131994 105.07813734 -10.49761391 101.60344696 C-10.50485964 97.71170707 -10.53539983 93.8203277 -10.56762695 89.92871094 C-10.56619186 88.79366119 -10.56475677 87.65861145 -10.5632782 86.48916626 C-10.70469647 74.34525541 -13.06083861 63.47181803 -21 54 C-23.81456783 51.56336001 -26.68309786 49.6799894 -30 48 C-31.03769531 47.46503906 -32.07539062 46.93007813 -33.14453125 46.37890625 C-37.73063137 44.46649389 -42.27331938 44.42467617 -47.1875 44.4375 C-48.11570557 44.43919189 -49.04391113 44.44088379 -50.00024414 44.44262695 C-57.9715242 44.65069441 -63.41032858 46.35043488 -70 51 C-70.91072266 51.57427734 -70.91072266 51.57427734 -71.83984375 52.16015625 C-80.49346362 58.30356578 -83.77034179 69.41595189 -85.62550354 79.34075928 C-87.04938682 89.45153146 -86.60611318 99.84595724 -86.609375 110.03125 C-86.62220479 112.72125993 -86.64092053 115.41122062 -86.65948486 118.10119629 C-86.69974053 124.41532845 -86.72031307 130.72935816 -86.73345876 137.04359865 C-86.75100604 144.95233966 -86.79546058 152.86090314 -86.83984375 160.76953125 C-86.91872619 174.84634892 -86.95754801 188.92292084 -87 203 C-105.81 203 -124.62 203 -144 203 C-144 136.01 -144 69.02 -144 0 C-126.18 0 -108.36 0 -90 0 C-90 11.55 -90 23.1 -90 35 C-89.34 35 -88.68 35 -88 35 C-87.814375 34.21625 -87.62875 33.4325 -87.4375 32.625 C-81.68261692 18.11268615 -69.58883236 8.68104995 -56 2 C-38.97372307 -5.26398498 -17.63352817 -5.62511994 0 0 Z " fill="#232321" transform="translate(1508,922)"/>
<path d="M0 0 C1.63569946 0.01353516 1.63569946 0.01353516 3.30444336 0.02734375 C21.54122691 0.41579088 38.76686295 6.50875749 52.75 18.4375 C53.31460938 18.8603125 53.87921875 19.283125 54.4609375 19.71875 C68.80261712 30.8806002 77.73154794 50.3976372 80.46875 68.08447266 C83.87472032 96.57990834 75.56787598 123.91653678 58.1015625 146.5234375 C42.7249822 165.57813668 25.05784266 177.82643393 2.75 187.4375 C1.59113281 187.9428125 0.43226563 188.448125 -0.76171875 188.96875 C-19.12629859 196.23483225 -37.63497312 196.6832274 -57.0859375 196.54296875 C-59.14477228 196.53448646 -61.20361046 196.52679001 -63.26245117 196.51989746 C-68.25838605 196.50148556 -73.25415464 196.4724598 -78.25 196.4375 C-78.3438845 180.43316577 -78.41419343 164.42892233 -78.45724869 148.4243784 C-78.47778084 140.99140216 -78.5057199 133.55859807 -78.55175781 126.12573242 C-78.59191481 119.63919491 -78.61750052 113.1527822 -78.62635398 106.66612381 C-78.63152055 103.23872555 -78.64346214 99.81168401 -78.67292023 96.38440132 C-78.8171631 77.49901183 -78.37395419 60.45865824 -69.25 43.4375 C-68.75886719 42.47585938 -68.26773437 41.51421875 -67.76171875 40.5234375 C-57.90132479 22.30877181 -41.32454035 8.76137245 -21.54003906 2.5925293 C-14.29464431 0.60034123 -7.49764564 -0.07512318 0 0 Z " fill="#F8F9F3" transform="translate(476.25,878.5625)"/>
<path d="M0 0 C8.95376706 6.536706 14.59440934 15.19209521 18.42578125 25.4921875 C18.68689697 26.1612915 18.9480127 26.83039551 19.21704102 27.51977539 C21.92502474 35.25285038 21.93742167 42.96092704 21.86328125 51.0546875 C21.85990753 51.76428619 21.85653381 52.47388489 21.85305786 53.20498657 C21.72660251 71.53739218 19.15909346 88.47831148 6.11328125 102.4921875 C-2.62211168 110.57502136 -13.2379909 114.04873297 -25.03515625 113.73828125 C-33.42353769 112.92525351 -40.00683018 109.64789441 -46.57421875 104.4921875 C-47.19167969 104.01265625 -47.80914063 103.533125 -48.4453125 103.0390625 C-58.5949518 94.08748753 -63.46785945 78.58674009 -64.57421875 65.4921875 C-65.61857471 44.13653871 -65.25353178 24.58313508 -51.32421875 7.1796875 C-38.06732267 -7.03869774 -16.70422981 -9.78426815 0 0 Z " fill="#F7F8F3" transform="translate(815.57421875,969.5078125)"/>
<path d="M0 0 C1.22339081 0.00212242 1.22339081 0.00212242 2.47149658 0.00428772 C5.06957712 0.00987322 7.66757063 0.02242304 10.265625 0.03515625 C12.02994667 0.04017313 13.79426969 0.04473571 15.55859375 0.04882812 C19.87763756 0.0598379 24.19661654 0.07709256 28.515625 0.09765625 C28.64014646 5.61108357 28.73039497 11.12367472 28.7902832 16.63818359 C28.81527398 18.51007362 28.84927873 20.3818676 28.89282227 22.25341797 C29.37463673 43.50993863 29.37463673 43.50993863 21.66455078 52.17895508 C15.14638221 58.76978697 6.99224242 61.26842621 -2.109375 61.59765625 C-8.02432193 61.39441755 -12.42982118 60.13038854 -17.484375 57.09765625 C-18.12117188 56.72382812 -18.75796875 56.35 -19.4140625 55.96484375 C-25.48957738 52.02749291 -29.67229301 46.41834746 -31.96875 39.515625 C-33.96814641 30.13966757 -33.04481512 22.07367061 -28.328125 13.73046875 C-21.19030293 3.5379008 -12.07458139 -0.07901809 0 0 Z " fill="#F9F9F3" transform="translate(336.484375,1107.90234375)"/>
<path d="M0 0 C10.66878541 5.53632555 15.88888715 13.6423795 20.0546875 24.69140625 C21 28 21 28 22 36 C-6.71 36 -35.42 36 -65 36 C-63.0464864 24.27891839 -60.25614235 13.82398613 -51.23046875 5.5625 C-36.25580427 -4.92763274 -16.88207422 -8.33714742 0 0 Z " fill="#F8F9F3" transform="translate(1037,965)"/>
<path d="M0 0 C1.7714765 1.53810834 3.52103123 3.10175941 5.25 4.6875 C6.22453125 5.56921875 7.1990625 6.4509375 8.203125 7.359375 C20.08770458 18.46501346 28.62908215 31.90329139 35.25 46.6875 C35.62125 47.51507812 35.9925 48.34265625 36.375 49.1953125 C37.87304596 52.82004871 38.42195473 54.96003287 37.25 58.6875 C34.47098214 52.29575893 34.47098214 52.29575893 33.4765625 49.55859375 C27.36160483 32.98088741 17.43123977 18.02872698 3.57470703 6.97119141 C3.13755371 6.54757324 2.70040039 6.12395508 2.25 5.6875 C2.25 5.0275 2.25 4.3675 2.25 3.6875 C0.6 3.0275 -1.05 2.3675 -2.75 1.6875 C-2.75 1.0275 -2.75 0.3675 -2.75 -0.3125 C-3.47832031 -0.58449219 -4.20664062 -0.85648438 -4.95703125 -1.13671875 C-7.64929413 -2.27010494 -9.96560366 -3.57648973 -12.4375 -5.125 C-21.20640254 -10.44851395 -29.90082604 -14.39422623 -39.75 -17.3125 C-40.45253906 -17.5290625 -41.15507812 -17.745625 -41.87890625 -17.96875 C-54.36114073 -21.29083197 -80.12757985 -24.12371008 -91.75 -18.3125 C-93.29023996 -18.24299459 -94.83334988 -18.22797643 -96.375 -18.25 C-97.60089844 -18.26353516 -97.60089844 -18.26353516 -98.8515625 -18.27734375 C-99.79128906 -18.29474609 -99.79128906 -18.29474609 -100.75 -18.3125 C-73.27694204 -36.62787198 -22.91103915 -18.09972093 0 0 Z " fill="#CF9C80" transform="translate(546.75,869.3125)"/>
<path d="M0 0 C2.475 0.495 2.475 0.495 5 1 C5 1.66 5 2.32 5 3 C7.475 3.99 7.475 3.99 10 5 C10 5.66 10 6.32 10 7 C10.57234375 7.24105469 11.1446875 7.48210938 11.734375 7.73046875 C24.45664274 14.85932567 32.2770635 32.409128 36.125 45.84765625 C40.39584794 61.91948333 40.97383032 79.02917776 36 95 C35.66355469 96.17691406 35.32710937 97.35382813 34.98046875 98.56640625 C32.38479432 107.42280852 32.38479432 107.42280852 30 111 C28.6602681 106.9808043 29.99521813 104.34025676 31.3125 100.5 C39.22256159 75.99431899 37.78010281 51.7533981 26.08984375 28.765625 C23.56876283 24.0664515 20.52211226 19.99172723 17 16 C16.37738281 15.18273437 15.75476563 14.36546875 15.11328125 13.5234375 C12.9158685 10.89953984 10.64618248 8.95860191 7.9375 6.875 C5.12671675 4.70245475 2.4452131 2.58150366 0 0 Z " fill="#CF9B7E" transform="translate(520,890)"/>
<path d="M0 0 C9.58556131 14.37834196 6.06232688 41.74603397 3 57.6875 C-0.10633324 72.56817277 -5.70430725 86.67133056 -13 100 C-13.82581934 97.68155068 -14.2201108 96.50373617 -13.21484375 94.203125 C-12.79332031 93.55859375 -12.37179687 92.9140625 -11.9375 92.25 C-5.33208325 81.02631138 -2.08780756 68.74661458 0 56 C0.66 56 1.32 56 2 56 C2.05031527 51.57496513 2.08614055 47.15009206 2.10986328 42.72485352 C2.1197769 41.22677706 2.13331185 39.72871915 2.15087891 38.23071289 C2.25569896 29.04662653 1.85726175 20.23359936 0.4453125 11.15039062 C-0.08933898 7.36796591 -0.15549981 3.80974543 0 0 Z " fill="#D19A7B" transform="translate(585,928)"/>
<path d="M0 0 C0.99 0.33 1.98 0.66 3 1 C2.72285156 2.02480469 2.44570313 3.04960938 2.16015625 4.10546875 C1.79418709 5.46612331 1.42830635 6.82680166 1.0625 8.1875 C0.88009766 8.86103516 0.69769531 9.53457031 0.50976562 10.22851562 C-0.95410964 15.68477798 -2.11840795 20.68798708 -2.15821838 26.34675598 C-2.1680072 27.40539856 -2.17779602 28.46404114 -2.18788147 29.55476379 C-2.19363693 30.70562973 -2.1993924 31.85649567 -2.20532227 33.04223633 C-2.21522186 34.26216278 -2.22512146 35.48208923 -2.23532104 36.73898315 C-2.26145859 40.07535224 -2.28334124 43.41169805 -2.30332303 46.74810624 C-2.32523414 50.23815844 -2.35259769 53.72816782 -2.37937927 57.21818542 C-2.429237 63.82307335 -2.47420141 70.42798513 -2.51740164 77.03291959 C-2.56683326 84.5540815 -2.62172937 92.07520044 -2.67708123 99.59632075 C-2.790795 115.06417409 -2.89765701 130.53206699 -3 146 C-3.33 146 -3.66 146 -4 146 C-4.07015987 128.927525 -4.1230223 111.85509515 -4.15543652 94.78250885 C-4.17088873 86.8549568 -4.19194668 78.92749446 -4.22631836 71 C-4.25627123 64.08835205 -4.27558696 57.17676909 -4.28226548 50.26505804 C-4.28616781 46.60719091 -4.2953042 42.94950967 -4.31719017 39.29170227 C-4.34145557 35.20284874 -4.34196622 31.11431598 -4.34057617 27.02539062 C-4.351362 25.81985535 -4.36214783 24.61432007 -4.3732605 23.37225342 C-4.34911587 16.80526723 -3.68047368 11.99738012 -1 6 C-0.60919203 4.01043215 -0.25149128 2.01193023 0 0 Z " fill="#B78164" transform="translate(401,929)"/>
<path d="M0 0 C11.09803639 0.10577076 20.73380873 2.03881886 31.00683594 6.32568359 C31.00683594 6.98568359 31.00683594 7.64568359 31.00683594 8.32568359 C29.90984375 8.04853516 28.81285156 7.77138672 27.68261719 7.48583984 C26.22820601 7.11989122 24.77377803 6.75400933 23.31933594 6.38818359 C22.59810547 6.20578125 21.876875 6.02337891 21.13378906 5.83544922 C20.07514648 5.56958008 20.07514648 5.56958008 18.99511719 5.29833984 C18.35098877 5.13599854 17.70686035 4.97365723 17.04321289 4.80639648 C-3.16095837 0.0369428 -22.20845043 3.31949112 -40.22753906 12.93505859 C-42.99316406 14.32568359 -42.99316406 14.32568359 -44.99316406 14.32568359 C-44.99316406 13.66568359 -44.99316406 13.00568359 -44.99316406 12.32568359 C-42.453974 11.02894758 -39.91202168 9.73820523 -37.36816406 8.45068359 C-36.6553125 8.08587891 -35.94246094 7.72107422 -35.20800781 7.34521484 C-28.84840739 4.13624215 -23.08225395 2.29869593 -15.99316406 1.32568359 C-13.06802151 -1.59945896 -3.94317234 0.0151531 0 0 Z " fill="#CD9B80" transform="translate(478.9931640625,876.67431640625)"/>
<path d="M0 0 C0.99 0.33 1.98 0.66 3 1 C2.96519531 2.25554687 2.93039062 3.51109375 2.89453125 4.8046875 C2.62799683 17.67911603 2.62799683 17.67911603 6 30 C6.29003906 30.825 6.58007812 31.65 6.87890625 32.5 C10.64978315 42.8501893 16.3708699 51.38300744 26 57 C26.33 57.66 26.66 58.32 27 59 C28.485 59.495 28.485 59.495 30 60 C30 60.66 30 61.32 30 62 C30.66 62.33 31.32 62.66 32 63 C27.18548406 62.56792806 24.50477427 60.27277109 21.125 57.0625 C20.5983374 56.56814453 20.0716748 56.07378906 19.52905273 55.56445312 C8.04861574 44.50594823 0.20819525 29.35449158 -0.1796875 13.23828125 C-0.21554274 8.82203828 -0.13242513 4.41417093 0 0 Z " fill="#A97358" transform="translate(271,1129)"/>
<path d="M0 0 C0.67958771 0.02361099 1.35917542 0.04722198 2.05935669 0.07154846 C4.2090904 0.14752352 6.35840187 0.23182742 8.5078125 0.31640625 C9.97393835 0.36969341 11.44008419 0.42243324 12.90625 0.47460938 C16.48202402 0.60304738 20.05746857 0.73895181 23.6328125 0.87890625 C23.6328125 1.20890625 23.6328125 1.53890625 23.6328125 1.87890625 C22.07554443 1.8929248 22.07554443 1.8929248 20.48681641 1.90722656 C16.59121652 1.94745729 12.69637924 2.01330296 8.80126953 2.08642578 C7.12363571 2.11444539 5.44587454 2.13575334 3.76806641 2.14990234 C-9.77233112 2.2355173 -9.77233112 2.2355173 -22.3671875 6.87890625 C-23.4396875 7.45640625 -24.5121875 8.03390625 -25.6171875 8.62890625 C-32.31037337 14.10514923 -35.56238073 20.82746092 -38.3671875 28.87890625 C-38.6971875 28.87890625 -39.0271875 28.87890625 -39.3671875 28.87890625 C-40.04852644 22.06551685 -37.02360769 17.36353653 -33.3671875 11.87890625 C-32.7071875 11.87890625 -32.0471875 11.87890625 -31.3671875 11.87890625 C-31.3671875 11.21890625 -31.3671875 10.55890625 -31.3671875 9.87890625 C-22.29061949 2.17562513 -11.69867752 -0.43507478 0 0 Z " fill="#AC765C" transform="translate(342.3671875,1105.12109375)"/>
<path d="M0 0 C0.33 0 0.66 0 1 0 C1.07489393 5.47685859 1.12894902 10.95341045 1.16479492 16.43066406 C1.17975905 18.28878989 1.20013773 20.14688117 1.22631836 22.00488281 C1.47022985 39.77694368 -0.1605819 56.40532202 -13 70 C-13 66.44464145 -12.15851483 65.38058104 -10.25 62.4375 C-1.46554829 48.16276597 -0.67364755 34.20106609 -0.375 17.875 C-0.33674586 16.13800284 -0.29769003 14.40102315 -0.2578125 12.6640625 C-0.16262741 8.44285295 -0.07830663 4.221555 0 0 Z " fill="#B1785C" transform="translate(397,1109)"/>
<path d="M0 0 C0.66 0 1.32 0 2 0 C0.09902707 5.70291878 -6.81227483 8.38845645 -12 11 C-23.48739168 16.24573939 -34.54441343 16.60924065 -47 16 C-46.67 15.34 -46.34 14.68 -46 14 C-45.09378906 14.02320313 -44.18757813 14.04640625 -43.25390625 14.0703125 C-27.60844261 14.30209715 -13.6345854 10.69060434 -1 1 C-0.67 0.67 -0.34 0.34 0 0 Z " fill="#AE775C" transform="translate(375,1185)"/>
<path d="M0 0 C-1.03898437 0.47308594 -2.07796875 0.94617187 -3.1484375 1.43359375 C-11.99284544 5.58136734 -19.11906611 9.91708175 -26 17 C-26.56589844 17.55429688 -27.13179688 18.10859375 -27.71484375 18.6796875 C-28.82649583 19.769784 -29.91726641 20.88117529 -31 22 C-31.66 21.67 -32.32 21.34 -33 21 C-27.14119051 13.74839859 -10.85389132 -4.77571218 0 0 Z " fill="#B17A5F" transform="translate(316,1080)"/>
<path d="M0 0 C2.42424279 3.63636418 2.95062225 7.02145758 3.625 11.25 C3.75688721 12.06960205 3.88877441 12.8892041 4.0246582 13.73364258 C5.52438695 24.11347174 5.2751289 34.54086892 5 45 C4.67 45 4.34 45 4 45 C3.9498877 44.41210693 3.89977539 43.82421387 3.84814453 43.21850586 C2.62426667 28.89293651 2.62426667 28.89293651 0.875 14.625 C0.1732851 9.67462068 -0.20382513 4.99371562 0 0 Z " fill="#D9A98E" transform="translate(585,928)"/>
<path d="M0 0 C0.33 0 0.66 0 1 0 C1.07455448 5.40768471 1.12879227 10.81506548 1.16479492 16.22314453 C1.17981496 18.06011166 1.20023709 19.89704334 1.22631836 21.73388672 C1.26300202 24.38518054 1.27979438 27.03599732 1.29296875 29.6875 C1.30845261 30.49928711 1.32393646 31.31107422 1.33988953 32.14746094 C1.34151737 37.75245728 0.33636965 41.88529245 -2 47 C-4.1875 49 -4.1875 49 -6 50 C-5.5978125 49.071875 -5.5978125 49.071875 -5.1875 48.125 C-4.795625 47.09375 -4.40375 46.0625 -4 45 C-3.75314453 44.38769531 -3.50628906 43.77539062 -3.25195312 43.14453125 C-0.21154867 34.57680796 -0.43855818 25.85324425 -0.3125 16.875 C-0.27926546 15.23434877 -0.24477032 13.59372256 -0.20898438 11.953125 C-0.12478795 7.9688897 -0.05765239 3.98470416 0 0 Z " fill="#A77156" transform="translate(366,1108)"/>
<path d="M0 0 C0.66 0.33 1.32 0.66 2 1 C0.58922306 2.7755291 -0.82886536 4.54525031 -2.25 6.3125 C-3.03890625 7.29863281 -3.8278125 8.28476563 -4.640625 9.30078125 C-6.65198298 11.6018547 -8.4793158 13.30605396 -11 15 C-10.40300869 11.66864109 -9.27987719 9.78724333 -7.0625 7.25 C-6.27552734 6.32960938 -6.27552734 6.32960938 -5.47265625 5.390625 C-4 4 -4 4 -2 4 C-2 3.34 -2 2.68 -2 2 C-1.34 2 -0.68 2 0 2 C0 1.34 0 0.68 0 0 Z " fill="#CC9677" transform="translate(559,1043)"/>
<path d="M0 0 C0.66 0 1.32 0 2 0 C0.6551963 4.03441111 -1.95309903 5.12667247 -5.4375 7.1875 C-6.03626953 7.55552734 -6.63503906 7.92355469 -7.25195312 8.30273438 C-11.72070675 11 -11.72070675 11 -14 11 C-14 10.34 -14 9.68 -14 9 C-13.24074219 8.60167969 -12.48148437 8.20335937 -11.69921875 7.79296875 C-10.70535156 7.26316406 -9.71148437 6.73335937 -8.6875 6.1875 C-7.70136719 5.66542969 -6.71523438 5.14335938 -5.69921875 4.60546875 C-3.3653464 3.21730444 -1.86643304 1.91237601 0 0 Z " fill="#B58268" transform="translate(375,1185)"/>
<path d="M0 0 C-3.04303836 2.38838945 -6.18885754 4.35892422 -9.5625 6.25 C-10.98755859 7.06210937 -10.98755859 7.06210937 -12.44140625 7.890625 C-15 9 -15 9 -18 8 C-15.56969216 6.46648472 -13.13194897 4.94816498 -10.6875 3.4375 C-9.65206055 2.78104492 -9.65206055 2.78104492 -8.59570312 2.11132812 C-7.92861328 1.70205078 -7.26152344 1.29277344 -6.57421875 0.87109375 C-5.96151123 0.48880615 -5.34880371 0.10651855 -4.7175293 -0.28735352 C-3 -1 -3 -1 0 0 Z " fill="#C69477" transform="translate(431,858)"/>
<path d="M0 0 C0.66 0.33 1.32 0.66 2 1 C-1.3 4.3 -4.6 7.6 -8 11 C-8.66 10.34 -9.32 9.68 -10 9 C-8.71142987 7.68445979 -7.41904109 6.37265903 -6.125 5.0625 C-5.04605469 3.96615234 -5.04605469 3.96615234 -3.9453125 2.84765625 C-2 1 -2 1 0 0 Z " fill="#2D2D29" transform="translate(949,941)"/>
<path d="M0 0 C0 3 0 3 -1.96875 5.26171875 C-2.8040625 6.06222656 -3.639375 6.86273437 -4.5 7.6875 C-5.3353125 8.49574219 -6.170625 9.30398438 -7.03125 10.13671875 C-8.00578125 11.05904297 -8.00578125 11.05904297 -9 12 C-9.99 11.67 -10.98 11.34 -12 11 C-8.04 7.37 -4.08 3.74 0 0 Z " fill="#C99277" transform="translate(525,1035)"/>
<path d="M0 0 C0.33 0 0.66 0 1 0 C0.80743982 10.15317287 0.80743982 10.15317287 -2.5625 13.6875 C-3.366875 14.120625 -4.17125 14.55375 -5 15 C-4.731875 14.38125 -4.46375 13.7625 -4.1875 13.125 C-2.5516213 8.82005607 -1.28728674 4.41968448 0 0 Z " fill="#AF7C63" transform="translate(365,1143)"/>
<path d="M0 0 C0 3.58912412 -0.66436554 4.10857029 -3 6.6875 C-3.556875 7.31011719 -4.11375 7.93273437 -4.6875 8.57421875 C-5.120625 9.04472656 -5.55375 9.51523437 -6 10 C-6.99 9.67 -7.98 9.34 -9 9 C-6.03 6.03 -3.06 3.06 0 0 Z " fill="#C28F73" transform="translate(403,874)"/>
<path d="M0 0 C2.84550012 0.66010476 5.52325999 1.51724966 8.25 2.5625 C8.95640625 2.83191406 9.6628125 3.10132813 10.390625 3.37890625 C10.92171875 3.58386719 11.4528125 3.78882813 12 4 C12 4.33 12 4.66 12 5 C7.25081338 4.53439347 3.89217595 3.83067342 0 1 C0 0.67 0 0.34 0 0 Z " fill="#AC765B" transform="translate(304,1193)"/>
<path d="M0 0 C0.66 0 1.32 0 2 0 C2.1875 3.3125 2.1875 3.3125 2 7 C1.01 7.99 0.02 8.98 -1 10 C-0.67 6.7 -0.34 3.4 0 0 Z " fill="#3A3A36" transform="translate(836,1037)"/>
<path d="M0 0 C3.96 0.33 7.92 0.66 12 1 C12 1.33 12 1.66 12 2 C6.06 2.495 6.06 2.495 0 3 C0 2.01 0 1.02 0 0 Z " fill="#191814" transform="translate(1059,1062)"/>
<path d="M0 0 C0.66 0.99 1.32 1.98 2 3 C1.5390625 5.04296875 1.5390625 5.04296875 0.625 7.1875 C0.32851563 7.90292969 0.03203125 8.61835937 -0.2734375 9.35546875 C-0.51320313 9.89816406 -0.75296875 10.44085937 -1 11 C-1.66 11 -2.32 11 -3 11 C-2.01 7.37 -1.02 3.74 0 0 Z " fill="#343430" transform="translate(834,1047)"/>
<path d="M0 0 C-1.39332574 3.36720387 -2.9789286 4.9859524 -6 7 C-6 4 -6 4 -4.125 1.8125 C-2 0 -2 0 0 0 Z " fill="#383833" transform="translate(767,934)"/>
<path d="M0 0 C2.64 0 5.28 0 8 0 C8 1.32 8 2.64 8 4 C7.34 4 6.68 4 6 4 C6 3.34 6 2.68 6 2 C3.03 1.505 3.03 1.505 0 1 C0 0.67 0 0.34 0 0 Z " fill="#3D3C37" transform="translate(1104,1065)"/>
<path d="M0 0 C0.33 0.66 0.66 1.32 1 2 C-0.65 4.31 -2.3 6.62 -4 9 C-4.66 8.67 -5.32 8.34 -6 8 C-4.02 5.36 -2.04 2.72 0 0 Z " fill="#C29479" transform="translate(393,884)"/>
</svg>
